<svg xmlns="http://www.w3.org/2000/svg" width="1920" height="1080" viewBox="0 0 1920 1080">
<rect width="1920" height="1080" fill="#071A2B"/><line x1="0" y1="162.0" x2="1920" y2="162.0" stroke="#C9A45C" stroke-width="0.5" opacity="0.12"/><line x1="0" y1="324.0" x2="1920" y2="324.0" stroke="#C9A45C" stroke-width="0.5" opacity="0.12"/><line x1="0" y1="486.0" x2="1920" y2="486.0" stroke="#C9A45C" stroke-width="0.5" opacity="0.12"/><line x1="0" y1="648.0" x2="1920" y2="648.0" stroke="#C9A45C" stroke-width="0.5" opacity="0.12"/><rect x="153.6" y="313.8" width="188.3" height="420.6" fill="none" stroke="#C9A45C" stroke-width="1" opacity="0.55"/><line x1="153.6" y1="355.8" x2="341.9" y2="355.8" stroke="#C9A45C" stroke-width="0.4" opacity="0.25"/><line x1="153.6" y1="397.9" x2="341.9" y2="397.9" stroke="#C9A45C" stroke-width="0.4" opacity="0.25"/><line x1="153.6" y1="439.9" x2="341.9" y2="439.9" stroke="#C9A45C" stroke-width="0.4" opacity="0.25"/><line x1="153.6" y1="482.0" x2="341.9" y2="482.0" stroke="#C9A45C" stroke-width="0.4" opacity="0.25"/><line x1="153.6" y1="524.1" x2="341.9" y2="524.1" stroke="#C9A45C" stroke-width="0.4" opacity="0.25"/><line x1="153.6" y1="566.1" x2="341.9" y2="566.1" stroke="#C9A45C" stroke-width="0.4" opacity="0.25"/><line x1="153.6" y1="608.2" x2="341.9" y2="608.2" stroke="#C9A45C" stroke-width="0.4" opacity="0.25"/><line x1="153.6" y1="650.3" x2="341.9" y2="650.3" stroke="#C9A45C" stroke-width="0.4" opacity="0.25"/><line x1="153.6" y1="692.3" x2="341.9" y2="692.3" stroke="#C9A45C" stroke-width="0.4" opacity="0.25"/><line x1="185.0" y1="313.8" x2="185.0" y2="734.4" stroke="#C9A45C" stroke-width="0.4" opacity="0.25"/><line x1="216.4" y1="313.8" x2="216.4" y2="734.4" stroke="#C9A45C" stroke-width="0.4" opacity="0.25"/><line x1="247.7" y1="313.8" x2="247.7" y2="734.4" stroke="#C9A45C" stroke-width="0.4" opacity="0.25"/><line x1="279.1" y1="313.8" x2="279.1" y2="734.4" stroke="#C9A45C" stroke-width="0.4" opacity="0.25"/><line x1="310.5" y1="313.8" x2="310.5" y2="734.4" stroke="#C9A45C" stroke-width="0.4" opacity="0.25"/><rect x="380.3" y="441.7" width="260.8" height="292.7" fill="none" stroke="#C9A45C" stroke-width="1" opacity="0.55"/><line x1="380.3" y1="483.5" x2="641.1" y2="483.5" stroke="#C9A45C" stroke-width="0.4" opacity="0.25"/><line x1="380.3" y1="525.3" x2="641.1" y2="525.3" stroke="#C9A45C" stroke-width="0.4" opacity="0.25"/><line x1="380.3" y1="567.1" x2="641.1" y2="567.1" stroke="#C9A45C" stroke-width="0.4" opacity="0.25"/><line x1="380.3" y1="609.0" x2="641.1" y2="609.0" stroke="#C9A45C" stroke-width="0.4" opacity="0.25"/><line x1="380.3" y1="650.8" x2="641.1" y2="650.8" stroke="#C9A45C" stroke-width="0.4" opacity="0.25"/><line x1="380.3" y1="692.6" x2="641.1" y2="692.6" stroke="#C9A45C" stroke-width="0.4" opacity="0.25"/><line x1="412.9" y1="441.7" x2="412.9" y2="734.4" stroke="#C9A45C" stroke-width="0.4" opacity="0.25"/><line x1="445.5" y1="441.7" x2="445.5" y2="734.4" stroke="#C9A45C" stroke-width="0.4" opacity="0.25"/><line x1="478.1" y1="441.7" x2="478.1" y2="734.4" stroke="#C9A45C" stroke-width="0.4" opacity="0.25"/><line x1="510.7" y1="441.7" x2="510.7" y2="734.4" stroke="#C9A45C" stroke-width="0.4" opacity="0.25"/><line x1="543.3" y1="441.7" x2="543.3" y2="734.4" stroke="#C9A45C" stroke-width="0.4" opacity="0.25"/><line x1="575.9" y1="441.7" x2="575.9" y2="734.4" stroke="#C9A45C" stroke-width="0.4" opacity="0.25"/><line x1="608.5" y1="441.7" x2="608.5" y2="734.4" stroke="#C9A45C" stroke-width="0.4" opacity="0.25"/><rect x="679.5" y="399.7" width="229.9" height="334.7" fill="none" stroke="#C9A45C" stroke-width="1" opacity="0.55"/><line x1="679.5" y1="441.5" x2="909.3" y2="441.5" stroke="#C9A45C" stroke-width="0.4" opacity="0.25"/><line x1="679.5" y1="483.4" x2="909.3" y2="483.4" stroke="#C9A45C" stroke-width="0.4" opacity="0.25"/><line x1="679.5" y1="525.2" x2="909.3" y2="525.2" stroke="#C9A45C" stroke-width="0.4" opacity="0.25"/><line x1="679.5" y1="567.1" x2="909.3" y2="567.1" stroke="#C9A45C" stroke-width="0.4" opacity="0.25"/><line x1="679.5" y1="608.9" x2="909.3" y2="608.9" stroke="#C9A45C" stroke-width="0.4" opacity="0.25"/><line x1="679.5" y1="650.7" x2="909.3" y2="650.7" stroke="#C9A45C" stroke-width="0.4" opacity="0.25"/><line x1="679.5" y1="692.6" x2="909.3" y2="692.6" stroke="#C9A45C" stroke-width="0.4" opacity="0.25"/><line x1="712.3" y1="399.7" x2="712.3" y2="734.4" stroke="#C9A45C" stroke-width="0.4" opacity="0.25"/><line x1="745.1" y1="399.7" x2="745.1" y2="734.4" stroke="#C9A45C" stroke-width="0.4" opacity="0.25"/><line x1="778.0" y1="399.7" x2="778.0" y2="734.4" stroke="#C9A45C" stroke-width="0.4" opacity="0.25"/><line x1="810.8" y1="399.7" x2="810.8" y2="734.4" stroke="#C9A45C" stroke-width="0.4" opacity="0.25"/><line x1="843.7" y1="399.7" x2="843.7" y2="734.4" stroke="#C9A45C" stroke-width="0.4" opacity="0.25"/><line x1="876.5" y1="399.7" x2="876.5" y2="734.4" stroke="#C9A45C" stroke-width="0.4" opacity="0.25"/><rect x="947.7" y="326.4" width="247.9" height="408.0" fill="none" stroke="#C9A45C" stroke-width="1" opacity="0.55"/><line x1="947.7" y1="367.2" x2="1195.6" y2="367.2" stroke="#C9A45C" stroke-width="0.4" opacity="0.25"/><line x1="947.7" y1="408.0" x2="1195.6" y2="408.0" stroke="#C9A45C" stroke-width="0.4" opacity="0.25"/><line x1="947.7" y1="448.8" x2="1195.6" y2="448.8" stroke="#C9A45C" stroke-width="0.4" opacity="0.25"/><line x1="947.7" y1="489.6" x2="1195.6" y2="489.6" stroke="#C9A45C" stroke-width="0.4" opacity="0.25"/><line x1="947.7" y1="530.4" x2="1195.6" y2="530.4" stroke="#C9A45C" stroke-width="0.4" opacity="0.25"/><line x1="947.7" y1="571.2" x2="1195.6" y2="571.2" stroke="#C9A45C" stroke-width="0.4" opacity="0.25"/><line x1="947.7" y1="612.0" x2="1195.6" y2="612.0" stroke="#C9A45C" stroke-width="0.4" opacity="0.25"/><line x1="947.7" y1="652.8" x2="1195.6" y2="652.8" stroke="#C9A45C" stroke-width="0.4" opacity="0.25"/><line x1="947.7" y1="693.6" x2="1195.6" y2="693.6" stroke="#C9A45C" stroke-width="0.4" opacity="0.25"/><line x1="978.7" y1="326.4" x2="978.7" y2="734.4" stroke="#C9A45C" stroke-width="0.4" opacity="0.25"/><line x1="1009.7" y1="326.4" x2="1009.7" y2="734.4" stroke="#C9A45C" stroke-width="0.4" opacity="0.25"/><line x1="1040.7" y1="326.4" x2="1040.7" y2="734.4" stroke="#C9A45C" stroke-width="0.4" opacity="0.25"/><line x1="1071.7" y1="326.4" x2="1071.7" y2="734.4" stroke="#C9A45C" stroke-width="0.4" opacity="0.25"/><line x1="1102.7" y1="326.4" x2="1102.7" y2="734.4" stroke="#C9A45C" stroke-width="0.4" opacity="0.25"/><line x1="1133.6" y1="326.4" x2="1133.6" y2="734.4" stroke="#C9A45C" stroke-width="0.4" opacity="0.25"/><line x1="1164.6" y1="326.4" x2="1164.6" y2="734.4" stroke="#C9A45C" stroke-width="0.4" opacity="0.25"/><rect x="1234.0" y="490.7" width="183.6" height="243.7" fill="none" stroke="#C9A45C" stroke-width="1" opacity="0.55"/><line x1="1234.0" y1="531.3" x2="1417.6" y2="531.3" stroke="#C9A45C" stroke-width="0.4" opacity="0.25"/><line x1="1234.0" y1="571.9" x2="1417.6" y2="571.9" stroke="#C9A45C" stroke-width="0.4" opacity="0.25"/><line x1="1234.0" y1="612.5" x2="1417.6" y2="612.5" stroke="#C9A45C" stroke-width="0.4" opacity="0.25"/><line x1="1234.0" y1="653.2" x2="1417.6" y2="653.2" stroke="#C9A45C" stroke-width="0.4" opacity="0.25"/><line x1="1234.0" y1="693.8" x2="1417.6" y2="693.8" stroke="#C9A45C" stroke-width="0.4" opacity="0.25"/><line x1="1264.6" y1="490.7" x2="1264.6" y2="734.4" stroke="#C9A45C" stroke-width="0.4" opacity="0.25"/><line x1="1295.2" y1="490.7" x2="1295.2" y2="734.4" stroke="#C9A45C" stroke-width="0.4" opacity="0.25"/><line x1="1325.8" y1="490.7" x2="1325.8" y2="734.4" stroke="#C9A45C" stroke-width="0.4" opacity="0.25"/><line x1="1356.4" y1="490.7" x2="1356.4" y2="734.4" stroke="#C9A45C" stroke-width="0.4" opacity="0.25"/><line x1="1387.0" y1="490.7" x2="1387.0" y2="734.4" stroke="#C9A45C" stroke-width="0.4" opacity="0.25"/><line x1="0" y1="734.4" x2="1920" y2="734.4" stroke="#C9A45C" stroke-width="1" opacity="0.4"/><text x="153.6" y="950.4" font-family="sans-serif" font-size="35" fill="#E2CC9B" letter-spacing="2" opacity="0.85">طيبة 109</text>
</svg>