<svg xmlns="http://www.w3.org/2000/svg" width="900" height="640" viewBox="0 0 900 640">
<defs><linearGradient id="g_night" x1="0%" y1="0%" x2="100%" y2="100%"><stop offset="0%" stop-color="#6B4FA1"/><stop offset="60%" stop-color="#7C5BCB"/><stop offset="100%" stop-color="#111111"/></linearGradient></defs>
<rect width="900" height="640" fill="url(#g_night)"/>
<circle cx="738.0" cy="140.8" r="83.2" fill="#C9A55C" opacity="0.55"/>
<rect x="40" y="437.6" width="54" height="228.0" rx="6" fill="rgba(255,255,255,0.14)"/><rect x="50" y="447.6" width="34" height="14" rx="3" fill="rgba(255,255,255,0.28)"/><rect x="50" y="477.6" width="34" height="14" rx="3" fill="rgba(255,255,255,0.28)"/><rect x="50" y="507.6" width="34" height="14" rx="3" fill="rgba(255,255,255,0.28)"/><rect x="50" y="537.6" width="34" height="14" rx="3" fill="rgba(255,255,255,0.28)"/><rect x="50" y="567.6" width="34" height="14" rx="3" fill="rgba(255,255,255,0.28)"/><rect x="50" y="597.6" width="34" height="14" rx="3" fill="rgba(255,255,255,0.28)"/><rect x="110" y="443.6" width="57" height="222.0" rx="6" fill="rgba(255,255,255,0.14)"/><rect x="120" y="453.6" width="37" height="14" rx="3" fill="rgba(255,255,255,0.28)"/><rect x="120" y="483.6" width="37" height="14" rx="3" fill="rgba(255,255,255,0.28)"/><rect x="120" y="513.6" width="37" height="14" rx="3" fill="rgba(255,255,255,0.28)"/><rect x="120" y="543.6" width="37" height="14" rx="3" fill="rgba(255,255,255,0.28)"/><rect x="120" y="573.6" width="37" height="14" rx="3" fill="rgba(255,255,255,0.28)"/><rect x="120" y="603.6" width="37" height="14" rx="3" fill="rgba(255,255,255,0.28)"/><rect x="189" y="396.8" width="85" height="268.8" rx="6" fill="rgba(255,255,255,0.14)"/><rect x="199" y="406.8" width="65" height="14" rx="3" fill="rgba(255,255,255,0.28)"/><rect x="199" y="436.8" width="65" height="14" rx="3" fill="rgba(255,255,255,0.28)"/><rect x="199" y="466.8" width="65" height="14" rx="3" fill="rgba(255,255,255,0.28)"/><rect x="199" y="496.8" width="65" height="14" rx="3" fill="rgba(255,255,255,0.28)"/><rect x="199" y="526.8" width="65" height="14" rx="3" fill="rgba(255,255,255,0.28)"/><rect x="199" y="556.8" width="65" height="14" rx="3" fill="rgba(255,255,255,0.28)"/><rect x="199" y="586.8" width="65" height="14" rx="3" fill="rgba(255,255,255,0.28)"/><rect x="296" y="396.8" width="53" height="268.8" rx="6" fill="rgba(255,255,255,0.14)"/><rect x="306" y="406.8" width="33" height="14" rx="3" fill="rgba(255,255,255,0.28)"/><rect x="306" y="436.8" width="33" height="14" rx="3" fill="rgba(255,255,255,0.28)"/><rect x="306" y="466.8" width="33" height="14" rx="3" fill="rgba(255,255,255,0.28)"/><rect x="306" y="496.8" width="33" height="14" rx="3" fill="rgba(255,255,255,0.28)"/><rect x="306" y="526.8" width="33" height="14" rx="3" fill="rgba(255,255,255,0.28)"/><rect x="306" y="556.8" width="33" height="14" rx="3" fill="rgba(255,255,255,0.28)"/><rect x="306" y="586.8" width="33" height="14" rx="3" fill="rgba(255,255,255,0.28)"/><rect x="359" y="486.6" width="67" height="179.0" rx="6" fill="rgba(255,255,255,0.14)"/><rect x="369" y="496.6" width="47" height="14" rx="3" fill="rgba(255,255,255,0.28)"/><rect x="369" y="526.6" width="47" height="14" rx="3" fill="rgba(255,255,255,0.28)"/><rect x="369" y="556.6" width="47" height="14" rx="3" fill="rgba(255,255,255,0.28)"/><rect x="369" y="586.6" width="47" height="14" rx="3" fill="rgba(255,255,255,0.28)"/><rect x="369" y="616.6" width="47" height="14" rx="3" fill="rgba(255,255,255,0.28)"/><rect x="443" y="396.8" width="52" height="268.8" rx="6" fill="rgba(255,255,255,0.14)"/><rect x="453" y="406.8" width="32" height="14" rx="3" fill="rgba(255,255,255,0.28)"/><rect x="453" y="436.8" width="32" height="14" rx="3" fill="rgba(255,255,255,0.28)"/><rect x="453" y="466.8" width="32" height="14" rx="3" fill="rgba(255,255,255,0.28)"/><rect x="453" y="496.8" width="32" height="14" rx="3" fill="rgba(255,255,255,0.28)"/><rect x="453" y="526.8" width="32" height="14" rx="3" fill="rgba(255,255,255,0.28)"/><rect x="453" y="556.8" width="32" height="14" rx="3" fill="rgba(255,255,255,0.28)"/><rect x="453" y="586.8" width="32" height="14" rx="3" fill="rgba(255,255,255,0.28)"/><rect x="513" y="469.6" width="82" height="196.0" rx="6" fill="rgba(255,255,255,0.14)"/><rect x="523" y="479.6" width="62" height="14" rx="3" fill="rgba(255,255,255,0.28)"/><rect x="523" y="509.6" width="62" height="14" rx="3" fill="rgba(255,255,255,0.28)"/><rect x="523" y="539.6" width="62" height="14" rx="3" fill="rgba(255,255,255,0.28)"/><rect x="523" y="569.6" width="62" height="14" rx="3" fill="rgba(255,255,255,0.28)"/><rect x="523" y="599.6" width="62" height="14" rx="3" fill="rgba(255,255,255,0.28)"/>
<rect x="0" y="661.6" width="900" height="-21.6" fill="rgba(0,0,0,0.18)"/>
<text x="50%" y="92%" text-anchor="middle" font-family="sans-serif" font-size="29"
    fill="rgba(255,255,255,0.85)" font-weight="600">الإضاءة الليلية</text>
</svg>