<svg xmlns="http://www.w3.org/2000/svg" width="1200" height="1400" viewBox="0 0 1200 1400">
<rect width="1200" height="1400" fill="#071A2B"/><line x1="0" y1="210.0" x2="1200" y2="210.0" stroke="#C9A45C" stroke-width="0.5" opacity="0.12"/><line x1="0" y1="420.0" x2="1200" y2="420.0" stroke="#C9A45C" stroke-width="0.5" opacity="0.12"/><line x1="0" y1="630.0" x2="1200" y2="630.0" stroke="#C9A45C" stroke-width="0.5" opacity="0.12"/><line x1="0" y1="840.0" x2="1200" y2="840.0" stroke="#C9A45C" stroke-width="0.5" opacity="0.12"/><rect x="96.0" y="601.8" width="131.3" height="350.2" fill="none" stroke="#C9A45C" stroke-width="1" opacity="0.55"/><line x1="96.0" y1="645.5" x2="227.3" y2="645.5" stroke="#C9A45C" stroke-width="0.4" opacity="0.25"/><line x1="96.0" y1="689.3" x2="227.3" y2="689.3" stroke="#C9A45C" stroke-width="0.4" opacity="0.25"/><line x1="96.0" y1="733.1" x2="227.3" y2="733.1" stroke="#C9A45C" stroke-width="0.4" opacity="0.25"/><line x1="96.0" y1="776.9" x2="227.3" y2="776.9" stroke="#C9A45C" stroke-width="0.4" opacity="0.25"/><line x1="96.0" y1="820.7" x2="227.3" y2="820.7" stroke="#C9A45C" stroke-width="0.4" opacity="0.25"/><line x1="96.0" y1="864.4" x2="227.3" y2="864.4" stroke="#C9A45C" stroke-width="0.4" opacity="0.25"/><line x1="96.0" y1="908.2" x2="227.3" y2="908.2" stroke="#C9A45C" stroke-width="0.4" opacity="0.25"/><line x1="128.8" y1="601.8" x2="128.8" y2="952.0" stroke="#C9A45C" stroke-width="0.4" opacity="0.25"/><line x1="161.7" y1="601.8" x2="161.7" y2="952.0" stroke="#C9A45C" stroke-width="0.4" opacity="0.25"/><line x1="194.5" y1="601.8" x2="194.5" y2="952.0" stroke="#C9A45C" stroke-width="0.4" opacity="0.25"/><rect x="251.3" y="623.7" width="154.9" height="328.3" fill="none" stroke="#C9A45C" stroke-width="1" opacity="0.55"/><line x1="251.3" y1="664.8" x2="406.2" y2="664.8" stroke="#C9A45C" stroke-width="0.4" opacity="0.25"/><line x1="251.3" y1="705.8" x2="406.2" y2="705.8" stroke="#C9A45C" stroke-width="0.4" opacity="0.25"/><line x1="251.3" y1="746.8" x2="406.2" y2="746.8" stroke="#C9A45C" stroke-width="0.4" opacity="0.25"/><line x1="251.3" y1="787.9" x2="406.2" y2="787.9" stroke="#C9A45C" stroke-width="0.4" opacity="0.25"/><line x1="251.3" y1="828.9" x2="406.2" y2="828.9" stroke="#C9A45C" stroke-width="0.4" opacity="0.25"/><line x1="251.3" y1="869.9" x2="406.2" y2="869.9" stroke="#C9A45C" stroke-width="0.4" opacity="0.25"/><line x1="251.3" y1="911.0" x2="406.2" y2="911.0" stroke="#C9A45C" stroke-width="0.4" opacity="0.25"/><line x1="282.3" y1="623.7" x2="282.3" y2="952.0" stroke="#C9A45C" stroke-width="0.4" opacity="0.25"/><line x1="313.3" y1="623.7" x2="313.3" y2="952.0" stroke="#C9A45C" stroke-width="0.4" opacity="0.25"/><line x1="344.2" y1="623.7" x2="344.2" y2="952.0" stroke="#C9A45C" stroke-width="0.4" opacity="0.25"/><line x1="375.2" y1="623.7" x2="375.2" y2="952.0" stroke="#C9A45C" stroke-width="0.4" opacity="0.25"/><rect x="430.2" y="541.6" width="146.6" height="410.4" fill="none" stroke="#C9A45C" stroke-width="1" opacity="0.55"/><line x1="430.2" y1="582.6" x2="576.8" y2="582.6" stroke="#C9A45C" stroke-width="0.4" opacity="0.25"/><line x1="430.2" y1="623.7" x2="576.8" y2="623.7" stroke="#C9A45C" stroke-width="0.4" opacity="0.25"/><line x1="430.2" y1="664.7" x2="576.8" y2="664.7" stroke="#C9A45C" stroke-width="0.4" opacity="0.25"/><line x1="430.2" y1="705.8" x2="576.8" y2="705.8" stroke="#C9A45C" stroke-width="0.4" opacity="0.25"/><line x1="430.2" y1="746.8" x2="576.8" y2="746.8" stroke="#C9A45C" stroke-width="0.4" opacity="0.25"/><line x1="430.2" y1="787.8" x2="576.8" y2="787.8" stroke="#C9A45C" stroke-width="0.4" opacity="0.25"/><line x1="430.2" y1="828.9" x2="576.8" y2="828.9" stroke="#C9A45C" stroke-width="0.4" opacity="0.25"/><line x1="430.2" y1="869.9" x2="576.8" y2="869.9" stroke="#C9A45C" stroke-width="0.4" opacity="0.25"/><line x1="430.2" y1="911.0" x2="576.8" y2="911.0" stroke="#C9A45C" stroke-width="0.4" opacity="0.25"/><line x1="466.8" y1="541.6" x2="466.8" y2="952.0" stroke="#C9A45C" stroke-width="0.4" opacity="0.25"/><line x1="503.5" y1="541.6" x2="503.5" y2="952.0" stroke="#C9A45C" stroke-width="0.4" opacity="0.25"/><line x1="540.1" y1="541.6" x2="540.1" y2="952.0" stroke="#C9A45C" stroke-width="0.4" opacity="0.25"/><rect x="600.8" y="501.9" width="112.2" height="450.1" fill="none" stroke="#C9A45C" stroke-width="1" opacity="0.55"/><line x1="600.8" y1="542.8" x2="712.9" y2="542.8" stroke="#C9A45C" stroke-width="0.4" opacity="0.25"/><line x1="600.8" y1="583.8" x2="712.9" y2="583.8" stroke="#C9A45C" stroke-width="0.4" opacity="0.25"/><line x1="600.8" y1="624.7" x2="712.9" y2="624.7" stroke="#C9A45C" stroke-width="0.4" opacity="0.25"/><line x1="600.8" y1="665.6" x2="712.9" y2="665.6" stroke="#C9A45C" stroke-width="0.4" opacity="0.25"/><line x1="600.8" y1="706.5" x2="712.9" y2="706.5" stroke="#C9A45C" stroke-width="0.4" opacity="0.25"/><line x1="600.8" y1="747.4" x2="712.9" y2="747.4" stroke="#C9A45C" stroke-width="0.4" opacity="0.25"/><line x1="600.8" y1="788.3" x2="712.9" y2="788.3" stroke="#C9A45C" stroke-width="0.4" opacity="0.25"/><line x1="600.8" y1="829.3" x2="712.9" y2="829.3" stroke="#C9A45C" stroke-width="0.4" opacity="0.25"/><line x1="600.8" y1="870.2" x2="712.9" y2="870.2" stroke="#C9A45C" stroke-width="0.4" opacity="0.25"/><line x1="600.8" y1="911.1" x2="712.9" y2="911.1" stroke="#C9A45C" stroke-width="0.4" opacity="0.25"/><line x1="638.2" y1="501.9" x2="638.2" y2="952.0" stroke="#C9A45C" stroke-width="0.4" opacity="0.25"/><line x1="675.6" y1="501.9" x2="675.6" y2="952.0" stroke="#C9A45C" stroke-width="0.4" opacity="0.25"/><rect x="736.9" y="522.6" width="110.7" height="429.4" fill="none" stroke="#C9A45C" stroke-width="1" opacity="0.55"/><line x1="736.9" y1="565.5" x2="847.6" y2="565.5" stroke="#C9A45C" stroke-width="0.4" opacity="0.25"/><line x1="736.9" y1="608.5" x2="847.6" y2="608.5" stroke="#C9A45C" stroke-width="0.4" opacity="0.25"/><line x1="736.9" y1="651.4" x2="847.6" y2="651.4" stroke="#C9A45C" stroke-width="0.4" opacity="0.25"/><line x1="736.9" y1="694.3" x2="847.6" y2="694.3" stroke="#C9A45C" stroke-width="0.4" opacity="0.25"/><line x1="736.9" y1="737.3" x2="847.6" y2="737.3" stroke="#C9A45C" stroke-width="0.4" opacity="0.25"/><line x1="736.9" y1="780.2" x2="847.6" y2="780.2" stroke="#C9A45C" stroke-width="0.4" opacity="0.25"/><line x1="736.9" y1="823.2" x2="847.6" y2="823.2" stroke="#C9A45C" stroke-width="0.4" opacity="0.25"/><line x1="736.9" y1="866.1" x2="847.6" y2="866.1" stroke="#C9A45C" stroke-width="0.4" opacity="0.25"/><line x1="736.9" y1="909.1" x2="847.6" y2="909.1" stroke="#C9A45C" stroke-width="0.4" opacity="0.25"/><line x1="773.8" y1="522.6" x2="773.8" y2="952.0" stroke="#C9A45C" stroke-width="0.4" opacity="0.25"/><line x1="810.7" y1="522.6" x2="810.7" y2="952.0" stroke="#C9A45C" stroke-width="0.4" opacity="0.25"/><line x1="0" y1="952.0" x2="1200" y2="952.0" stroke="#C9A45C" stroke-width="1" opacity="0.4"/>
</svg>